# xmcd CD database file
#
# Track frame offsets:
#	150
#	14297
#	26951
#	39642
#	54241
#	69083
#	85246
#	100288
#	116911
#	132880
#	147168
#	163456
#
# Disc length: 2364 seconds
#
# Revision: 0
# Processed by: cddbd v1.5.2PL0 Copyright (c) Steve Scherf et al.
# Submitted via: CDex 1.79
#
DISCID=a5093a0c
DTITLE=CHARLIE  PARKER - Charlie Parker with Strings
DYEAR=1950
DGENRE=Jazz
TTITLE0=April in Paris
TTITLE1=Summertime
TTITLE2=If I Should Lose You
TTITLE3=I Didn't Know What Time It Was
TTITLE4=Everything Happens To Me
TTITLE5=Just Friends
TTITLE6=They Can't Take That Away From Me
TTITLE7=East Of The Sun (West Of The Moon)
TTITLE8=Easy To Love
TTITLE9=You Came Along (From Out Of Nowhere)
TTITLE10=I'm In The Mood For Love
TTITLE11=I'll Remember April
EXTD=YEAR: 1950
EXTT0=
EXTT1=
EXTT2=
EXTT3=
EXTT4=
EXTT5=
EXTT6=
EXTT7=
EXTT8=
EXTT9=
EXTT10=
EXTT11=
PLAYORDER=
